<svg height="512" viewBox="0 0 512 512" width="512" xmlns="http://www.w3.org/2000/svg" xmlns:xlink="http://www.w3.org/1999/xlink"><linearGradient id="linear-gradient" gradientUnits="userSpaceOnUse" x1="23.529" x2="566.047" y1="488.471" y2="-54.047"><stop offset="0" stop-color="#003f8a"/><stop offset=".518" stop-color="#00d7df"/><stop offset="1" stop-color="#006df0"/></linearGradient><linearGradient id="linear-gradient-2" x1="-84.471" x2="458.047" xlink:href="#linear-gradient" y1="380.471" y2="-162.047"/><linearGradient id="linear-gradient-3" x1="131.529" x2="674.047" xlink:href="#linear-gradient" y1="596.471" y2="53.953"/><linearGradient id="linear-gradient-6" x1="23.53" x2="566.047" xlink:href="#linear-gradient" y1="488.471" y2="-54.047"/><linearGradient id="linear-gradient-7" x1="23.529" x2="566.047" xlink:href="#linear-gradient" y1="488.47" y2="-54.047"/><linearGradient id="linear-gradient-8" x1="176.265" x2="718.782" xlink:href="#linear-gradient" y1="641.206" y2="98.688"/><linearGradient id="linear-gradient-9" x1="-129.206" x2="413.312" xlink:href="#linear-gradient" y1="335.735" y2="-206.782"/><linearGradient id="linear-gradient-10" x1="-58.471" x2="484.047" xlink:href="#linear-gradient" y1="406.471" y2="-136.047"/><g id="Brightness"><path d="m256 112c-79.4 0-144 64.6-144 144s64.6 144 144 144 144-64.6 144-144-64.6-144-144-144zm0 272a128 128 0 1 1 128-128 128.145 128.145 0 0 1 -128 128z" fill="url(#linear-gradient)"/><path d="m256 72a8 8 0 0 0 8-8v-48a8 8 0 0 0 -16 0v48a8 8 0 0 0 8 8z" fill="url(#linear-gradient-2)"/><path d="m256 440a8 8 0 0 0 -8 8v48a8 8 0 0 0 16 0v-48a8 8 0 0 0 -8-8z" fill="url(#linear-gradient-3)"/><path d="m496 248h-48a8 8 0 0 0 0 16h48a8 8 0 0 0 0-16z" fill="url(#linear-gradient-3)"/><path d="m64 248h-48a8 8 0 0 0 0 16h48a8 8 0 0 0 0-16z" fill="url(#linear-gradient-2)"/><path d="m420.049 80.638-33.942 33.941a8 8 0 0 0 11.315 11.313l33.941-33.941a8 8 0 1 0 -11.314-11.313z" fill="url(#linear-gradient-6)"/><path d="m114.578 386.108-33.941 33.941a8 8 0 1 0 11.314 11.313l33.942-33.941a8 8 0 0 0 -11.315-11.313z" fill="url(#linear-gradient-7)"/><path d="m397.422 386.108a8 8 0 1 0 -11.315 11.313l33.942 33.941a8 8 0 1 0 11.314-11.313z" fill="url(#linear-gradient-8)"/><path d="m114.578 125.892a8 8 0 1 0 11.315-11.313l-33.942-33.941a8 8 0 0 0 -11.314 11.313z" fill="url(#linear-gradient-9)"/><path d="m256 104a8 8 0 0 0 8-8v-8a8 8 0 0 0 -16 0v8a8 8 0 0 0 8 8z" fill="url(#linear-gradient-10)"/></g></svg>